<svg width="500" height="500" viewBox="0 0 500 500" fill="none" xmlns="http://www.w3.org/2000/svg">
<circle id="Ellipse 1" cx="250" cy="250" r="250" fill="#ED9B6D"/>
<g id="Sheet_1">
<path id="XMLID_991_" d="M436.652 176.3L459.6 351.2H423.24V166.456C430.133 166.456 435.918 170.701 436.652 176.3Z" fill="#AAAFAD"/>
<path id="XMLID_984_" d="M354.541 87.5986L406.571 130.044C417.244 138.75 423.24 150.56 423.24 162.872V387.385C423.24 400.206 410.499 410.599 394.785 410.599H124.455C108.741 410.6 96 400.208 96 387.386V97.2135C96 84.393 108.741 74 124.455 74H314.298C329.392 74 343.869 78.8916 354.541 87.5986Z" fill="#E0E0E0"/>
<path id="XMLID_985_" d="M309.417 120.428V74H314.301C329.395 74 343.87 78.8916 354.543 87.5986L406.571 130.043C417.244 138.75 423.24 150.559 423.24 162.872V166.855H366.328C334.897 166.855 309.417 146.069 309.417 120.428Z" fill="#F2F2F2"/>
</g>
<g id="Print_1_">
<path id="XMLID_983_" d="M211.591 406.705C204.663 412.364 193.429 412.364 186.501 406.705L151.375 378.013C144.447 372.354 144.447 363.178 151.375 357.519C158.303 351.86 169.537 351.86 176.465 357.519L211.591 386.211C218.519 391.869 218.519 401.044 211.591 406.705Z" fill="#F49638"/>
<path id="XMLID_981_" d="M246.717 394.407C239.788 400.066 228.555 400.066 221.627 394.407L146.357 332.924C139.43 327.265 139.43 318.089 146.357 312.43C153.285 306.772 164.519 306.772 171.447 312.43L246.717 373.913C253.645 379.572 253.645 388.748 246.717 394.407Z" fill="#AD1251"/>
<path id="XMLID_980_" d="M251.735 357.518C244.807 363.177 233.573 363.177 226.645 357.518L151.375 296.035C144.447 290.376 144.447 281.2 151.375 275.541C158.303 269.882 169.537 269.882 176.465 275.541L251.735 337.024C258.663 342.684 258.663 351.858 251.735 357.518Z" fill="#7FA3BA"/>
<path id="XMLID_979_" d="M246.717 312.43C239.788 318.089 228.555 318.089 221.627 312.43L186.501 283.738C179.573 278.079 179.573 268.903 186.501 263.244C193.429 257.585 204.663 257.585 211.591 263.244L246.717 291.936C253.645 297.596 253.645 306.771 246.717 312.43Z" fill="#E25C56"/>
<path id="XMLID_982_" d="M126.285 337.025C119.358 342.684 108.124 342.684 101.196 337.025C94.2681 331.366 94.2681 322.19 101.196 316.531C108.124 310.872 119.358 310.872 126.285 316.531C133.213 322.189 133.213 331.364 126.285 337.025Z" fill="#F49638"/>
<path id="XMLID_87_" d="M296.896 353.419C289.968 359.078 278.734 359.078 271.807 353.419C264.879 347.76 264.879 338.584 271.807 332.925C278.734 327.266 289.968 327.266 296.896 332.925C303.824 338.584 303.824 347.759 296.896 353.419Z" fill="#E25C56"/>
</g>
</svg>
