<svg width="500" height="500" viewBox="0 0 500 500" fill="none" xmlns="http://www.w3.org/2000/svg">
<circle id="Ellipse 1" cx="250" cy="250" r="250" fill="#E6D28E"/>
<g id="rock-svg 1">
<path id="Vector" d="M186.667 103.879C186.667 103.879 228.889 92.5322 239.444 92.5322C250 92.5322 292.222 103.879 292.222 103.879C292.222 103.879 334.444 149.247 345 149.247C345 149.247 366.111 149.247 387.222 171.931C408.333 194.615 408.333 239.983 408.333 239.983C408.333 239.983 429.444 285.351 429.444 308.034C429.444 330.718 418.889 353.402 408.333 364.749C397.778 376.097 355.556 387.433 355.556 387.433C355.556 387.433 345 410.117 323.889 421.464C260.556 432.812 218.333 421.464 218.333 421.464L197.222 398.781C197.222 398.781 123.333 387.433 112.778 387.433C102.222 387.433 70.5555 342.066 70.5555 330.718C70.5555 319.371 70.5555 285.351 81.1111 251.319C102.222 217.288 112.778 205.952 112.778 205.952C112.778 205.952 102.222 183.278 112.778 160.594C133.889 137.911 176.111 126.563 176.111 126.563L186.667 103.879V103.879Z" fill="#66757F"/>
<path id="Vector_2" d="M190.984 107.394C190.984 107.394 229.332 96.6172 239.265 96.6172C249.198 96.6172 291.937 108.746 291.937 108.746C291.937 108.746 329.663 151.2 339.596 151.2C339.596 151.2 361.108 150.725 380.984 172.089C400.86 193.454 399.013 231.38 399.013 231.38C399.013 231.38 418.889 274.088 418.889 295.442C418.889 316.796 408.956 338.16 399.023 348.842C389.091 359.524 349.349 370.196 349.349 370.196C349.349 370.196 339.416 391.55 319.54 402.232C259.933 412.914 220.191 402.232 220.191 402.232L200.326 380.878C200.326 380.878 130.786 370.196 120.853 370.196C110.92 370.196 81.1111 327.478 81.1111 316.796C81.1111 306.113 81.1111 274.077 91.0439 242.041C110.92 210.005 120.853 199.333 120.853 199.333C120.853 199.333 108.313 181.991 118.246 160.626C138.111 139.272 180.323 128.284 180.323 128.284L190.984 107.394V107.394Z" fill="#99AAB5"/>
<path id="Vector_3" d="M194.805 116.071C194.805 116.071 230.673 106.656 239.962 106.656C249.251 106.656 289.224 117.243 289.224 117.243C289.224 117.243 324.501 154.303 333.79 154.303C333.79 154.303 353.909 153.892 372.497 172.533C391.075 191.174 389.365 224.287 389.365 224.287C389.365 224.287 392.268 269.095 399.794 270.446C418.899 273.866 401.557 309.639 392.268 318.959C382.979 328.28 318.273 332.439 318.273 332.439C318.273 332.439 320.553 361.519 301.965 370.851C246.221 380.171 222.112 373.447 222.112 373.447L203.534 354.806C203.534 354.806 158.251 311.56 148.962 311.56C139.673 311.56 92.0361 308.193 92.0361 298.872C92.0361 289.552 92.0361 261.579 101.325 233.618C119.903 205.656 129.202 196.325 129.202 196.325C129.202 196.325 117.475 181.178 126.764 162.537C145.342 143.896 184.819 134.301 184.819 134.301L194.805 116.071Z" fill="#CCD6DD"/>
<path id="Vector_4" d="M126.394 192.968L168.416 212.507L146.461 228.002L101.346 233.618L126.394 192.968Z" fill="#99AAB5"/>
<path id="Vector_5" d="M76.8572 292.022C76.8572 292.022 88.7744 331.774 91.9094 336.492C95.0444 341.211 135.177 337.843 140.191 337.843C145.204 337.843 169.662 350.647 169.662 350.647C169.662 350.647 137.056 359.408 125.772 358.057C114.488 356.706 85.1539 351.439 82.5044 343.902C79.855 336.366 76.8572 292.022 76.8572 292.022V292.022Z" fill="#66757F"/>
<path id="Vector_6" d="M137.056 161.302C142.228 159.666 177.811 144.455 185.337 145.131C192.863 145.806 224.846 163.993 217.32 170.063C209.794 176.132 168.406 171.414 156.499 171.414C144.592 171.414 126.394 164.669 137.056 161.302ZM111.976 242.833C115.174 236.806 157.755 234.747 157.755 234.747C157.755 234.747 212.939 256.988 212.939 260.355C212.939 263.722 162.779 286.638 157.755 287.303C152.731 287.968 109.463 247.551 111.976 242.833V242.833ZM235.507 283.936C234.515 278.606 256.829 246.2 261.221 243.508C265.612 240.817 324.554 225.311 334.582 225.311C344.609 225.311 376.593 248.892 377.226 253.61C377.849 258.328 349.011 290.671 341.485 293.362C333.959 296.064 237.386 294.038 235.507 283.936ZM291.948 194.984C289.573 200.653 348.388 208.464 354.658 205.762C360.928 203.07 372.212 184.872 370.333 180.154C368.454 175.436 350.267 161.956 340.862 163.307C331.447 164.669 297.584 181.516 291.948 194.984V194.984ZM245.546 112.113C250.802 113.242 285.678 121.549 290.069 128.284C294.46 135.018 269.38 155.908 262.477 156.583C255.584 157.259 208.548 128.284 203.534 124.917C198.521 121.549 236.13 110.086 245.546 112.113Z" fill="#E1E8ED"/>
<path id="Vector_7" d="M197.887 391.064C193.496 384.33 200.399 362.089 204.157 364.781C207.915 367.473 219.209 375.558 219.832 382.303C220.455 389.038 231.749 401.842 239.898 405.884C248.047 409.927 292.571 409.927 300.097 407.236C307.623 404.544 325.177 389.713 329.568 380.952C333.959 372.191 339.026 371.547 349.349 370.186C359.672 368.824 369.637 379.094 355.556 387.433C341.485 395.772 326.433 410.603 308.879 413.97C291.325 417.337 234.262 420.039 224.223 415.997C214.185 411.954 197.887 391.064 197.887 391.064V391.064Z" fill="#66757F"/>
<path id="Vector_8" d="M273.222 342.403C267.934 339.564 265.96 316.067 268.683 314.114C271.407 312.162 296.824 316.067 302.725 317.038C308.626 318.009 344.483 315.086 348.114 318.991C351.745 322.897 360.496 337.21 363.546 345.813C366.597 354.426 346.752 353.128 339.036 351.175C331.32 349.222 280.484 346.309 273.222 342.403V342.403ZM192.863 186.899C199.756 186.899 228.604 186.223 234.874 186.899C241.144 187.574 261.21 206.437 251.805 208.464C242.4 210.491 217.32 217.225 213.552 217.901C209.783 218.576 195.998 205.772 191.607 202.405C187.226 199.027 185.347 186.899 192.863 186.899V186.899ZM271.882 168.036C275.365 162.431 288.813 160.626 289.436 166.685C290.058 172.754 286.301 186.223 278.774 185.548C271.248 184.883 266.857 176.122 271.882 168.036V168.036ZM235.507 310.209C241.767 309.459 253.694 308.182 253.694 313.576C253.694 318.97 246.168 320.986 237.386 320.311C228.614 319.646 229.86 310.884 235.507 310.209Z" fill="#99AAB5"/>
<path id="Vector_9" d="M211.05 235.423C216.528 230.715 235.507 230.029 239.898 232.056C244.289 234.082 234.884 248.227 229.237 248.902C223.59 249.567 204.78 240.806 211.05 235.423V235.423Z" fill="#E1E8ED"/>
<path id="Vector_10" d="M336.461 338.508C342.72 336.83 357.783 335.141 357.149 339.859C356.527 344.578 350.257 353.339 345.232 352.663C340.208 351.988 331.447 339.859 336.461 338.508ZM295.706 385.681C302.63 384.531 313.259 378.947 312.637 385.681C312.014 392.416 304.488 401.177 296.328 399.836C288.179 398.485 287.557 387.022 295.706 385.681V385.681Z" fill="#66757F"/>
</g>
</svg>
