<svg xmlns="http://www.w3.org/2000/svg" width="500" height="500" fill="none" viewBox="0 0 500 500"><circle id="Ellipse 1" cx="250" cy="250" r="250" fill="#AAE68E"/><g id="livelong 1" clip-path="url(#clip0_0_1)"><g id="layer1"><path id="path3336" fill="#2A3281" fill-rule="evenodd" stroke="#2A3281" stroke-width=".282" d="M170.174 115.547L186.625 232.534L183.782 273.154L182.766 431.574C182.766 431.574 197.428 435.861 213.232 435.636C253.989 435.056 298.277 432.512 333.062 411.264C340.461 406.744 349.31 390.954 349.31 390.954C353.999 353.668 357.34 315.034 351.341 267.061L347.279 232.534L363.324 142.966C368.247 115.484 340.841 119.013 336.921 136.872L316.814 228.472L343.217 96.455C348.027 72.409 319.44 62.3705 312.752 88.3309L279.579 217.096C266.109 236.066 260.611 222.046 257.914 215.27L234.964 82.2379C231.039 59.49 196.762 54.6373 202.467 90.362L224.199 226.441L202.67 109.454C195.748 71.8366 161.775 80.2333 170.174 115.547V115.547Z" clip-rule="evenodd"/><path id="path3338" fill="#2A3281" fill-rule="evenodd" stroke="#2A3281" stroke-width=".282" d="M118.372 233.493C111.355 221.359 72.4157 219.3 69.3815 239.56C69.3815 239.56 114.328 276.1 117.894 299.643C124.313 342.031 180.722 427.341 180.722 427.341L235.076 386.065C231.266 359.356 196.098 350.472 180.161 311.437C176.974 303.631 158.745 289.483 156.341 275.582C152.687 254.444 124.674 235.893 118.372 233.493V233.493Z" clip-rule="evenodd"/></g></g><defs><clipPath id="clip0_0_1"><rect width="295.27" height="372" fill="#fff" transform="translate(69 64)"/></clipPath></defs></svg>